<svg width="33" height="36" viewBox="0 0 33 36" fill="none" xmlns="http://www.w3.org/2000/svg">
<path d="M11.2862 20.4125H16.413C18.2252 20.4125 19.9745 20.9382 21.471 21.9315C21.9636 22.2591 22.6258 22.125 22.9521 21.6337C23.2773 21.1423 23.1444 20.4789 22.6531 20.1526C21.6716 19.501 20.5988 19.0251 19.4773 18.7095C22.2329 16.8806 24.0546 13.7523 24.0546 10.2051C24.0546 4.57857 19.4773 0 13.8496 0C8.22194 0 3.64457 4.57857 3.64457 10.2051C3.64457 13.7535 5.46745 16.8806 8.22313 18.7107C3.48554 20.0505 0 24.4024 0 29.5625V31.0222C0 32.6279 1.13455 34.0081 2.69278 34.3013C6.32074 35.0074 10.0745 35.3646 13.8496 35.3646H13.9445C14.5344 35.3646 14.9652 34.8864 14.9652 34.2965C14.9652 33.7067 14.4394 33.2284 13.8496 33.2284C10.211 33.2284 6.59369 32.8831 3.09391 32.2031C2.53969 32.0986 2.13737 31.6026 2.13737 31.0222V29.5625C2.13737 24.5163 6.24122 20.4125 11.2862 20.4125ZM5.78194 10.2051C5.78194 5.75584 9.4004 2.13619 13.8496 2.13619C18.2988 2.13619 21.9173 5.75584 21.9173 10.2051C21.9173 14.6543 18.2988 18.2739 13.8496 18.2739C9.4004 18.2739 5.78194 14.6543 5.78194 10.2051Z" fill="#575B60"/>
<path d="M29.7761 24.127H19.4678C17.995 24.127 16.7952 25.3256 16.7952 26.7996V32.6955C16.7952 34.1682 17.9938 35.3657 19.4654 35.3657H29.7761C31.2488 35.3657 32.4487 34.167 32.4487 32.6931V26.7996C32.4487 25.3256 31.2488 24.127 29.7761 24.127ZM19.4678 26.2631H29.7761C30.0716 26.2631 30.3113 26.5041 30.3113 26.7996V27.7039H18.9325V26.7996C18.9325 26.5041 19.1723 26.2631 19.4678 26.2631ZM29.7761 33.2295H19.4654C19.1711 33.2295 18.9325 32.9898 18.9325 32.6954V29.8401H30.3113V32.6931C30.3113 32.9886 30.0716 33.2295 29.7761 33.2295Z" fill="#575B60"/>
</svg>
