<svg width="8" height="23" viewBox="0 0 8 23" fill="none" xmlns="http://www.w3.org/2000/svg">
<path d="M3.87636 0C3.65479 0 3.4307 0.0236206 3.21035 0.0702C2.53555 0.211832 1.92369 0.552301 1.44092 1.05481C0.954475 1.56288 0.62645 2.20305 0.492308 2.90611C0.355516 3.61345 0.424917 4.33609 0.69301 4.99592L0.694811 5.00222C0.954015 5.657 1.39251 6.21684 1.96293 6.62133C2.53939 7.01641 3.20197 7.22523 3.87906 7.22523C4.78329 7.22523 5.67164 6.84208 6.3163 6.17403C6.9632 5.49569 7.33421 4.56111 7.33421 3.60992C7.33421 2.89608 7.13068 2.203 6.7456 1.60561L6.74019 1.602C6.36617 1.01002 5.8317 0.551802 5.19488 0.277203C4.78191 0.0958595 4.32598 0 3.87636 0ZM3.87636 5.87343C3.72904 5.87343 3.58641 5.85829 3.45245 5.82843C3.02222 5.74525 2.63195 5.52833 2.32384 5.20112C2.01702 4.88082 1.81255 4.48246 1.73253 4.04912C1.64773 3.61793 1.68944 3.17134 1.85313 2.75761L1.85673 2.74861C2.02391 2.33467 2.29903 1.98549 2.65234 1.73881C3.01313 1.48563 3.43732 1.35181 3.87906 1.35181C4.46176 1.35181 5.02764 1.59587 5.43158 2.02141C5.83483 2.44449 6.06609 3.02348 6.06609 3.60992C6.06609 4.0606 5.93911 4.49474 5.69889 4.86542C5.46069 5.23754 5.12116 5.5251 4.71697 5.69703C4.4546 5.81243 4.16392 5.87343 3.87636 5.87343ZM3.87906 11.9809C3.70977 11.9809 3.5541 12.0467 3.44075 12.1663L3.43535 12.1717C3.31638 12.2951 3.24815 12.4696 3.24815 12.6505V19.9963L1.14212 17.5978C1.01434 17.4718 0.848464 17.4025 0.675011 17.4025C0.497457 17.4025 0.331886 17.4747 0.208804 17.6059L0.202503 17.6131C0.071931 17.7482 0 17.93 0 18.1252C0 18.3219 0.0706416 18.5045 0.198903 18.6391L3.42545 21.9358C3.4843 21.9929 3.55238 22.0386 3.61716 22.0645L3.64596 22.0762L3.67566 22.0924C3.73083 22.1177 3.80115 22.1311 3.87906 22.1311C3.9551 22.1311 4.02202 22.1181 4.07796 22.0924L4.10946 22.0762L4.14456 22.0627C4.21335 22.0356 4.28092 21.99 4.32997 21.9376L7.55832 18.6427C7.68759 18.5053 7.76172 18.3167 7.76172 18.1252C7.76172 17.9361 7.68693 17.7481 7.55652 17.6095C7.42392 17.476 7.25549 17.4025 7.08221 17.4025C6.90693 17.4025 6.7404 17.4725 6.6133 17.5996L4.50907 19.9999V12.6505C4.50907 12.4687 4.44084 12.2942 4.32187 12.1717L4.31377 12.1645C4.20338 12.0478 4.04491 11.9809 3.87906 11.9809Z" fill="white"/>
</svg>
