<svg width="8" height="23" viewBox="0 0 8 23" fill="none" xmlns="http://www.w3.org/2000/svg">
<path d="M3.8763 22.131C3.65473 22.131 3.43065 22.1074 3.2103 22.0608C2.53551 21.9192 1.92366 21.5787 1.4409 21.0762C0.95446 20.5681 0.62644 19.928 0.4923 19.2249C0.355511 18.5176 0.424911 17.7949 0.693 17.1351L0.6948 17.1288C0.954 16.474 1.39249 15.9142 1.9629 15.5097C2.53935 15.1146 3.20192 14.9058 3.879 14.9058C4.78322 14.9058 5.67155 15.2889 6.3162 15.957C6.96309 16.6353 7.3341 17.5699 7.3341 18.5211C7.3341 19.2349 7.13057 19.928 6.7455 20.5254L6.74009 20.529C6.36607 21.121 5.83161 21.5792 5.1948 21.8538C4.78184 22.0351 4.32591 22.131 3.8763 22.131ZM3.8763 16.2576C3.72898 16.2576 3.58636 16.2727 3.4524 16.3026C3.02217 16.3858 2.63191 16.6027 2.3238 16.9299C2.01699 17.2502 1.81252 17.6486 1.7325 18.0819C1.64771 18.5131 1.68941 18.9597 1.8531 19.3734L1.8567 19.3824C2.02388 19.7963 2.299 20.1455 2.6523 20.3922C3.01308 20.6454 3.43727 20.7792 3.879 20.7792C4.46169 20.7792 5.02756 20.5351 5.4315 20.1096C5.83474 19.6865 6.066 19.1075 6.066 18.5211C6.066 18.0704 5.93902 17.6363 5.6988 17.2656C5.46061 16.8935 5.12108 16.6059 4.7169 16.434C4.45453 16.3186 4.16386 16.2576 3.8763 16.2576ZM3.879 10.1502C3.70971 10.1502 3.55405 10.0844 3.4407 9.9648L3.4353 9.9594C3.31633 9.83593 3.2481 9.66142 3.2481 9.4806V2.1348L1.1421 4.5333C1.01432 4.65926 0.848451 4.7286 0.675 4.7286C0.49745 4.7286 0.331881 4.65637 0.2088 4.5252L0.2025 4.518C0.0719299 4.38292 0 4.20105 0 4.0059C0 3.80914 0.0706406 3.62663 0.1989 3.492L3.4254 0.1953C3.48425 0.1382 3.55233 0.09251 3.6171 0.0666L3.6459 0.0549L3.6756 0.0387C3.73077 0.01337 3.80109 0 3.879 0C3.95504 0 4.02196 0.01302 4.0779 0.0387L4.1094 0.0549L4.1445 0.0684C4.21328 0.09553 4.28085 0.14112 4.3299 0.1935L7.5582 3.4884C7.68747 3.62581 7.7616 3.81442 7.7616 4.0059C7.7616 4.19502 7.68681 4.38299 7.5564 4.5216C7.42381 4.65509 7.25538 4.7286 7.0821 4.7286C6.90682 4.7286 6.7403 4.6586 6.6132 4.5315L4.509 2.1312V9.4806C4.509 9.66234 4.44077 9.83685 4.3218 9.9594L4.3137 9.9666C4.20332 10.0833 4.04485 10.1502 3.879 10.1502Z" fill="#1F242A"/>
</svg>
