<svg width="11" height="11" viewBox="0 0 11 11" fill="none" xmlns="http://www.w3.org/2000/svg">
<path d="M9.53695 3.81478H0.635798C0.254319 3.81478 0 3.56046 0 3.17898C0 2.79751 0.254319 2.54319 0.635798 2.54319H8.01104L6.54871 1.08085C6.29439 0.826535 6.29439 0.445057 6.54871 0.190739C6.80303 -0.0635796 7.18451 -0.0635796 7.43883 0.190739L9.98201 2.73393C10.1728 2.92467 10.2363 3.17898 10.1092 3.4333C10.0456 3.68762 9.79128 3.81478 9.53695 3.81478Z" fill="white"/>
<path d="M3.18156 10.9012C2.99082 10.9012 2.86366 10.8376 2.7365 10.7105L0.193315 8.16728C0.0025762 7.97654 -0.0610036 7.72222 0.0661559 7.46791C0.193315 7.21358 0.384054 7.08643 0.638373 7.08643H9.53953C9.92101 7.08643 10.1753 7.34074 10.1753 7.72222C10.1753 8.1037 9.92101 8.35802 9.53953 8.35802H2.16429L3.62662 9.82035C3.88094 10.0747 3.88094 10.4562 3.62662 10.7105C3.49946 10.8376 3.3723 10.9012 3.18156 10.9012Z" fill="white"/>
</svg>
