<svg width="25" height="19" viewBox="0 0 25 19" fill="none" xmlns="http://www.w3.org/2000/svg">
<path d="M19.7934 11.1516C20.3241 11.1516 20.7543 11.5818 20.7543 12.1125V13.2655C20.7543 13.7962 20.3241 14.2263 19.7934 14.2263H17.5835C17.0528 14.2263 16.6226 13.7962 16.6226 13.2655V12.1125C16.6226 11.5818 17.0528 11.1516 17.5835 11.1516H19.7934ZM22.676 9.42211V6.53957H1.92169V14.2205C1.92169 15.2801 2.78383 16.1422 3.84338 16.1422H20.7543C21.8138 16.1422 22.676 15.2801 22.676 14.2205C22.676 13.6898 23.1061 13.2597 23.6368 13.2597C24.1675 13.2597 24.5977 13.6898 24.5977 14.2205C24.5977 16.3398 22.8736 18.0639 20.7543 18.0639H3.84338C1.72408 18.0639 0 16.3398 0 14.2205V3.84338C0 1.72408 1.72408 0 3.84338 0H20.7543C22.8736 0 24.5977 1.72408 24.5977 3.84338V9.42211C24.5977 9.95283 24.1675 10.383 23.6368 10.383C23.1061 10.383 22.676 9.95283 22.676 9.42211ZM22.676 4.61788V3.84338C22.676 2.78383 21.8138 1.92169 20.7543 1.92169H3.84338C2.78383 1.92169 1.92169 2.78383 1.92169 3.84338V4.61788H22.676ZM4.80423 8.46126C4.27351 8.46126 3.84338 8.89139 3.84338 9.42211C3.84338 9.95283 4.27351 10.383 4.80423 10.383H12.7312C13.2619 10.383 13.6921 9.95283 13.6921 9.42211C13.6921 8.89139 13.2619 8.46126 12.7312 8.46126H4.80423Z" fill="white"/>
</svg>
