<svg width="22" height="22" viewBox="0 0 22 22" fill="none" xmlns="http://www.w3.org/2000/svg">
<path d="M11 0C4.92487 0 0 4.92487 0 11C0 17.0751 4.92487 22 11 22C17.0751 22 22 17.0751 22 11C21.9928 4.92784 17.0722 0.00716209 11 0ZM11 20C6.02943 20 2 15.9706 2 11C2 6.02944 6.02943 2 11 2C15.9706 2 20 6.02944 20 11C19.9939 15.9681 15.968 19.9939 11 20Z" fill="white"/>
<path d="M12 10.586V5C12 4.44772 11.5523 4 11 4C10.4477 4 10 4.44772 10 5V11C10 11.265 10.1053 11.5193 10.2928 11.7068L13.293 14.707C13.6834 15.0976 14.3166 15.0976 14.7071 14.7071C15.0976 14.3166 15.0976 13.6834 14.7071 13.2929L12 10.586Z" fill="white"/>
</svg>
