<svg width="24" height="22" viewBox="0 0 24 22" fill="none" xmlns="http://www.w3.org/2000/svg">
<path d="M18.0001 8.0699V5.00004C18.0001 3.53305 16.9716 2.21088 15.104 1.27716C13.4568 0.453592 11.289 0 9.00008 0C6.71086 0 4.54305 0.453592 2.8959 1.27716C1.02846 2.21088 0 3.53305 0 5.00004V9.00002V12.9999V16.9998C0 18.4669 1.02846 19.789 2.89597 20.7228C4.54311 21.5464 6.71093 21.9999 9.00015 21.9999C10.744 21.9999 12.4065 21.7397 13.8427 21.2463C14.7919 21.728 15.8648 21.9999 17 21.9999C20.8603 21.9999 24.0009 18.8593 24.0009 14.999C24.0009 11.4783 21.3883 8.5567 18.0001 8.0699ZM2.00026 12.2021C2.27302 12.3865 2.57146 12.5607 2.89597 12.7229C4.54311 13.5465 6.71099 14.0001 9.00015 14.0001C9.36113 14.0001 9.71998 13.9881 10.0755 13.9657C10.0254 14.303 9.99908 14.648 9.99908 14.9991C9.99908 15.3257 10.0221 15.6471 10.0656 15.962C9.71418 15.987 9.35826 15.9997 9.00015 15.9997C4.99377 15.9998 2.00026 14.416 2.00026 12.9999V12.2021ZM10.7236 11.9001C10.162 11.9661 9.58449 11.9997 9.00008 11.9997C4.99377 11.9998 2.00026 10.4161 2.00026 9.00002V8.20218C2.27302 8.38654 2.57146 8.56076 2.89597 8.72292C4.54311 9.54655 6.71099 10.0001 9.00015 10.0001C10.2318 10.0001 11.4273 9.86766 12.5266 9.61803C11.7775 10.2418 11.1606 11.0187 10.7236 11.9001ZM9.00008 2.00026C13.0063 2.00026 15.9998 3.58399 15.9998 5.00004C15.9998 6.41609 13.0063 7.99989 9.00008 7.99989C4.99377 7.99989 2.00026 6.41609 2.00026 5.00004C2.00026 3.58399 4.99377 2.00026 9.00008 2.00026ZM2.00026 16.9999V16.2021C2.27302 16.3865 2.57146 16.5607 2.89597 16.7229C4.54311 17.5464 6.71093 18 9.00015 18C9.55222 18 10.1004 17.9729 10.6386 17.9204C10.9437 18.5822 11.3489 19.1887 11.8349 19.72C10.9437 19.9025 9.97868 19.9997 9.00008 19.9997C4.99377 19.9997 2.00026 18.4159 2.00026 16.9999ZM17 19.9997C14.2426 19.9997 11.9993 17.7564 11.9993 14.9991C11.9993 12.2495 14.2301 10.0116 16.9768 9.99901C16.9846 9.99921 16.9921 10.0002 17 10.0002C17.0078 10.0002 17.0153 9.99921 17.0232 9.99901C19.7699 10.0116 22.0006 12.2495 22.0006 14.9991C22.0006 17.7564 19.7573 19.9997 17 19.9997Z" fill="white"/>
</svg>
