<svg width="26" height="23" viewBox="0 0 26 23" fill="none" xmlns="http://www.w3.org/2000/svg">
<path d="M24.47 14.2078C24.2608 14.2081 24.0603 14.2913 23.9124 14.4392C23.7645 14.5871 23.6813 14.7877 23.681 14.9968V20.5228H1.579V11.0508H10.262C10.4714 11.0508 10.6722 10.9677 10.8203 10.8196C10.9683 10.6715 11.0515 10.4707 11.0515 10.2613C11.0515 10.0519 10.9683 9.85114 10.8203 9.70308C10.6722 9.55502 10.4714 9.47183 10.262 9.47183H1.579V6.31483H10.262C10.4714 6.31483 10.6722 6.23166 10.8203 6.0836C10.9683 5.93554 11.0515 5.73473 11.0515 5.52534C11.0515 5.31596 10.9683 5.11513 10.8203 4.96707C10.6722 4.81901 10.4714 4.73584 10.262 4.73584H1.579C1.37164 4.73584 1.16632 4.77668 0.974743 4.85603C0.78317 4.93539 0.609102 5.05169 0.462478 5.19832C0.315855 5.34494 0.199546 5.51901 0.120194 5.71059C0.040842 5.90216 0 6.10748 0 6.31483L0 20.5238C0 20.9426 0.166358 21.3442 0.462478 21.6404C0.758598 21.9365 1.16022 22.1028 1.579 22.1028H23.679C23.8864 22.1028 24.0917 22.062 24.2833 21.9827C24.4748 21.9033 24.6489 21.787 24.7955 21.6404C24.9421 21.4937 25.0585 21.3197 25.1378 21.1281C25.2172 20.9365 25.258 20.7312 25.258 20.5238V14.9978C25.258 14.7887 25.175 14.588 25.0273 14.4399C24.8796 14.2918 24.6792 14.2084 24.47 14.2078Z" fill="black"/>
<path d="M7.10399 14.2119H3.946C3.73661 14.2119 3.53579 14.295 3.38773 14.4431C3.23967 14.5911 3.15649 14.792 3.15649 15.0013C3.15649 15.2107 3.23967 15.4115 3.38773 15.5596C3.53579 15.7077 3.73661 15.7909 3.946 15.7909H7.10299C7.31238 15.7909 7.51319 15.7077 7.66125 15.5596C7.80931 15.4115 7.89249 15.2107 7.89249 15.0013C7.89249 14.792 7.80931 14.5911 7.66125 14.4431C7.51319 14.295 7.31338 14.2119 7.10399 14.2119Z" fill="black"/>
<path d="M24.7809 2.43084L19.2549 0.0628395C19.1561 0.0213649 19.0501 0 18.9429 0C18.8358 0 18.7297 0.0213649 18.6309 0.0628395L13.1049 2.43084C12.9633 2.49211 12.8426 2.5935 12.7579 2.7225C12.6731 2.8515 12.6279 3.00248 12.6279 3.15684V6.31384C12.6279 10.6568 14.2339 13.1958 18.5499 15.6818C18.6697 15.7501 18.8051 15.7859 18.9429 15.7859C19.0807 15.7859 19.2162 15.7501 19.3359 15.6818C23.6519 13.2018 25.2579 10.6628 25.2579 6.31384V3.15684C25.258 3.00245 25.2129 2.85142 25.1282 2.72239C25.0434 2.59336 24.9227 2.49201 24.7809 2.43084ZM23.6809 6.31484C23.6809 9.95984 22.4749 11.9668 18.9449 14.0818C15.4149 11.9618 14.2089 9.95484 14.2089 6.31484V3.67784L18.9449 1.64784L23.6809 3.67784V6.31484Z" fill="black"/>
<path d="M21.807 4.90784C21.6424 4.77956 21.4343 4.72063 21.2269 4.74361C21.0196 4.76659 20.8294 4.86965 20.697 5.03084L18.2149 8.13085L17.2329 6.66284C17.1169 6.4886 16.9364 6.36758 16.7312 6.32642C16.5259 6.28525 16.3127 6.32731 16.1385 6.44335C15.9642 6.55938 15.8432 6.73987 15.802 6.94513C15.7609 7.15039 15.8029 7.3636 15.9189 7.53784L17.498 9.90584C17.5675 10.009 17.66 10.0945 17.7683 10.1556C17.8767 10.2167 17.9977 10.2517 18.122 10.2578H18.1549C18.2737 10.2574 18.3909 10.2303 18.4977 10.1783C18.6045 10.1264 18.6983 10.051 18.7719 9.95784L21.929 6.01084C22.0577 5.84786 22.1171 5.64074 22.0942 5.43431C22.0714 5.22788 21.9682 5.03874 21.807 4.90784Z" fill="black"/>
</svg>
