<svg width="22" height="22" viewBox="0 0 22 22" fill="none" xmlns="http://www.w3.org/2000/svg">
<path d="M11 22C4.9346 22 0 17.0654 0 11C0 4.9346 4.9346 0 11 0C17.0654 0 22 4.9346 22 11C22 17.0654 17.0654 22 11 22ZM11 2.2C6.1479 2.2 2.2 6.1479 2.2 11C2.2 15.8521 6.1479 19.8 11 19.8C15.8521 19.8 19.8 15.8521 19.8 11C19.8 6.1479 15.8521 2.2 11 2.2Z" fill="white"/>
<path d="M10.9999 16.2247C10.3927 16.2247 9.8999 15.7319 9.8999 15.1247V10.4145C9.8999 9.80725 10.3927 9.31445 10.9999 9.31445C11.6071 9.31445 12.0999 9.80725 12.0999 10.4145V15.1247C12.0999 15.7319 11.6071 16.2247 10.9999 16.2247Z" fill="white"/>
<path d="M10.9999 7.97482C10.7139 7.97482 10.4279 7.85383 10.2189 7.65582C10.0209 7.44683 9.8999 7.16082 9.8999 6.87482C9.8999 6.73182 9.9329 6.58882 9.9879 6.45682C10.0429 6.32482 10.1199 6.20382 10.2189 6.09382C10.6369 5.68682 11.3629 5.68682 11.7809 6.09382C11.9789 6.30282 12.0999 6.58882 12.0999 6.87482C12.0999 7.16082 11.9789 7.44683 11.7809 7.65582C11.6709 7.75483 11.5499 7.83183 11.4179 7.88682C11.2859 7.95283 11.1429 7.97482 10.9999 7.97482Z" fill="white"/>
</svg>
