<svg width="33" height="30" viewBox="0 0 33 30" fill="none" xmlns="http://www.w3.org/2000/svg">
<path d="M17.4004 26.85H4.07851C3.05666 26.85 2.22464 26.018 2.22464 24.9961V1.26662C2.22464 0.652617 1.72632 0.154297 1.11232 0.154297C0.49832 0.154297 0 0.652617 0 1.26662V24.9961C0 27.246 1.82866 29.0746 4.07851 29.0746H17.4004C18.0144 29.0746 18.5127 28.5763 18.5127 27.9623C18.5127 27.3483 18.0144 26.85 17.4004 26.85Z" fill="#575B60"/>
<path d="M24.2203 0.342709C23.6429 0.133081 23.0058 0.433324 22.7957 1.00933L20.6337 6.99445L16.5192 5.76168C16.2287 5.67371 15.9143 5.71088 15.6554 5.85827C15.3918 6.00555 15.1998 6.25501 15.1231 6.54677L13.2636 13.6739L9.27772 12.608C8.72123 12.4618 8.13994 12.762 7.94477 13.3056L5.42436 20.2796C5.21516 20.8584 5.51541 21.4955 6.0924 21.7038C6.3281 21.7899 6.573 21.7894 6.79567 21.7214C7.11904 21.6225 7.39306 21.3774 7.51798 21.0353L9.69156 15.0218L13.7716 16.1116C14.0564 16.1858 14.3615 16.1437 14.618 15.9986C14.8732 15.8492 15.059 15.6048 15.1342 15.3181L16.9853 8.22463L21.0024 9.42822C21.564 9.59616 22.1659 9.29738 22.368 8.74088L24.8884 1.76687C25.0976 1.18803 24.7973 0.550919 24.2203 0.342709Z" fill="#575B60"/>
<path d="M17.5 19.6541C17.5 15.5189 20.8646 12.1543 24.9998 12.1543C29.135 12.1543 32.4996 15.5189 32.4996 19.6541C32.4996 23.7893 29.135 27.1539 24.9998 27.1539C20.8646 27.1539 17.5 23.7893 17.5 19.6541ZM19.2311 19.6541C19.2311 22.836 21.819 25.4238 24.9998 25.4238C28.1817 25.4238 30.7695 22.836 30.7695 19.6541C30.7695 16.4733 28.1817 13.8854 24.9998 13.8854C21.819 13.8854 19.2311 16.4733 19.2311 19.6541ZM27.0653 22.9336L24.4691 20.9148C24.2583 20.7507 24.1348 20.4994 24.1348 20.2315V16.4816C24.1348 16.0039 24.5221 15.6155 24.9998 15.6155C25.4775 15.6155 25.8659 16.0039 25.8659 16.4816V19.8078L28.1266 21.567C28.5046 21.8608 28.5721 22.405 28.2782 22.782C28.109 23 27.8535 23.1163 27.596 23.1163C27.4101 23.1163 27.2232 23.0561 27.0653 22.9336Z" fill="#575B60"/>
</svg>
