<svg width="202" height="37" viewBox="0 0 202 37" fill="none" xmlns="http://www.w3.org/2000/svg">
<path d="M169.544 10.9752H174.353V27.5911H169.544V10.9752ZM150.161 24.0852L160.481 10.9752H165.294V27.5911H160.481V18.0512L152.992 27.5911H147.37L139.882 18.0961V27.5911H135.073V10.9752H139.882L150.161 24.0852ZM63.7932 10.9752H68.6062V27.5911H63.7932L49.2732 16.5581V27.5872H44.4641V10.9752H49.2732L63.7942 22.1361L63.7932 10.9752ZM177.045 27.5911L186.362 10.9752H191.657L201.064 27.5911H195.791L194.097 24.4681H183.987L182.306 27.5911H177.045ZM192.295 21.1481L189.021 15.1141L185.774 21.1481H192.295ZM84.8271 24.1581C86.1992 24.1803 87.5678 24.0168 88.896 23.6721C89.926 23.4233 90.8632 22.8843 91.5962 22.1191C92.2237 21.309 92.5642 20.3134 92.5642 19.2886C92.5642 18.2639 92.2237 17.2682 91.5962 16.4581C90.8612 15.6947 89.9249 15.1548 88.896 14.9011C87.5691 14.5489 86.1998 14.3823 84.8271 14.4061C83.4444 14.3853 82.0651 14.5518 80.7271 14.9011C79.6719 15.1522 78.7072 15.6913 77.9402 16.4581C77.2921 17.2591 76.9385 18.2583 76.9385 19.2886C76.9385 20.319 77.2921 21.3181 77.9402 22.1191C78.7053 22.8878 79.6709 23.4259 80.7271 23.6721C82.0664 24.0139 83.445 24.1773 84.8271 24.1581ZM84.8271 28.0081C82.3783 28.0783 79.9351 27.7338 77.6011 26.9891C75.9154 26.4597 74.4331 25.425 73.355 24.0252C72.4454 22.6108 71.9619 20.9647 71.9619 19.2831C71.9619 17.6016 72.4454 15.9555 73.355 14.5411C74.4323 13.1416 75.9151 12.1083 77.6011 11.5822C82.3248 10.2174 87.3383 10.2174 92.062 11.5822C93.745 12.1094 95.2246 13.1426 96.2991 14.5411C97.209 15.9554 97.6929 17.6015 97.6929 19.2831C97.6929 20.9648 97.209 22.6109 96.2991 24.0252C95.2239 25.424 93.7447 26.4587 92.062 26.9891C89.7251 27.7346 87.279 28.0791 84.8271 28.0081ZM116.134 24.0852L126.455 10.9752H131.268V27.5911H126.455V18.0512L118.966 27.5911H113.344L105.855 18.0961V27.5911H101.046V10.9752H105.855L116.134 24.0852Z" fill="white"/>
<path d="M22.961 4.163V11.163L9.445 3.64L15.75 0L22.961 4.163ZM8.539 32.21V25.21L22.055 32.732L15.75 36.372L8.539 32.21ZM24.329 31.42L6.286 21.38V30.909L0 27.28V10.711L30.653 27.769L24.329 31.42ZM7.171 4.953L25.213 14.993V5.464L31.5 9.094V25.662L0.847 8.6L7.171 4.953Z" fill="url(#paint0_linear_225_897)"/>
<defs>
<linearGradient id="paint0_linear_225_897" x1="19.404" y1="7.2744" x2="24.7418" y2="28.5967" gradientUnits="userSpaceOnUse">
<stop stop-color="#F4C553"/>
<stop offset="0.49" stop-color="#DAA934"/>
<stop offset="1" stop-color="#BF8C15"/>
</linearGradient>
</defs>
</svg>
