<svg width="22" height="26" viewBox="0 0 22 26" fill="none" xmlns="http://www.w3.org/2000/svg">
<path d="M21.3545 17.5555C21.2603 17.442 21.1678 17.3285 21.077 17.2189C19.8283 15.7086 19.0729 14.7971 19.0729 10.5216C19.0729 8.30809 18.5434 6.49187 17.4996 5.1297C16.73 4.1234 15.6896 3.36002 14.3184 2.79585C14.3007 2.78603 14.285 2.77316 14.2718 2.75782C13.7786 1.10619 12.4289 0 10.9067 0C9.38448 0 8.03537 1.10619 7.54215 2.75612C7.52898 2.77089 7.51345 2.78336 7.49617 2.79301C4.29621 4.11034 2.74107 6.63773 2.74107 10.5199C2.74107 14.7971 1.98677 15.7086 0.736975 17.2172C0.64617 17.3268 0.553656 17.438 0.45944 17.5538C-0.0375155 18.1531 -0.14055 18.9867 0.195517 19.689C0.545714 20.4269 1.29206 20.8849 2.14399 20.8849H19.6757C20.5236 20.8849 21.2649 20.4274 21.6162 19.693C21.9537 18.9905 21.8515 18.1558 21.3545 17.5555Z" fill="#575B60"/>
<path d="M10.9065 25.4269C12.5775 25.4256 14.1129 24.5073 14.9045 23.0358C14.9418 22.9654 14.9394 22.8806 14.8982 22.8124C14.8571 22.7442 14.7832 22.7025 14.7036 22.7026H7.11064C7.03088 22.7023 6.95685 22.7439 6.91557 22.8122C6.87431 22.8804 6.87187 22.9653 6.90913 23.0358C7.7007 24.5071 9.23579 25.4254 10.9065 25.4269Z" fill="#575B60"/>
</svg>
