<svg width="18" height="18" viewBox="0 0 18 18" fill="none" xmlns="http://www.w3.org/2000/svg">
<path d="M9.57428 1.09662C9.57864 0.95421 9.55437 0.812379 9.50289 0.679533C9.45141 0.546688 9.37377 0.425534 9.27458 0.323259C9.1754 0.220984 9.05668 0.139671 8.92548 0.0841417C8.79427 0.0286129 8.65325 0 8.51078 0C8.36831 0 8.22729 0.0286129 8.09608 0.0841417C7.96488 0.139671 7.84616 0.220984 7.74697 0.323259C7.64778 0.425534 7.57015 0.546688 7.51867 0.679533C7.46719 0.812379 7.44291 0.95421 7.44728 1.09662V3.22362C7.44291 3.36602 7.46719 3.50785 7.51867 3.6407C7.57015 3.77354 7.64778 3.8947 7.74697 3.99697C7.84616 4.09925 7.96488 4.18056 8.09608 4.23609C8.22729 4.29162 8.36831 4.32023 8.51078 4.32023C8.65325 4.32023 8.79427 4.29162 8.92548 4.23609C9.05668 4.18056 9.1754 4.09925 9.27458 3.99697C9.37377 3.8947 9.45141 3.77354 9.50289 3.6407C9.55437 3.50785 9.57864 3.36602 9.57428 3.22362V1.09662Z" fill="#FF9214"/>
<path d="M8.51028 12.7947C8.36812 12.7852 8.22558 12.8063 8.09221 12.8564C7.95885 12.9066 7.83773 12.9846 7.73698 13.0854C7.63624 13.1861 7.55818 13.3072 7.50805 13.4406C7.45791 13.574 7.43685 13.7165 7.44629 13.8587V15.9857C7.45476 16.2621 7.57052 16.5243 7.76904 16.7169C7.96756 16.9094 8.23324 17.0171 8.50978 17.0171C8.78633 17.0171 9.05201 16.9094 9.25053 16.7169C9.44905 16.5243 9.56481 16.2621 9.57328 15.9857V13.8587C9.5827 13.7166 9.56167 13.5741 9.51159 13.4409C9.46151 13.3076 9.38355 13.1865 9.28291 13.0858C9.18228 12.985 9.06129 12.907 8.92804 12.8568C8.7948 12.8066 8.65237 12.7854 8.51028 12.7947Z" fill="#FF9214"/>
<path d="M5.53225 4.07377L4.04325 2.47377C3.80602 2.31668 3.52778 2.23291 3.24325 2.23291C2.95872 2.23291 2.68049 2.31668 2.44325 2.47377C2.28616 2.71101 2.20239 2.98924 2.20239 3.27377C2.20239 3.5583 2.28616 3.83654 2.44325 4.07377L3.93225 5.56277C4.02827 5.66361 4.14377 5.7439 4.27175 5.79875C4.39972 5.85361 4.53751 5.8819 4.67675 5.8819C4.81599 5.8819 4.95378 5.85361 5.08176 5.79875C5.20974 5.7439 5.32524 5.66361 5.42125 5.56277C5.53927 5.48154 5.63755 5.37488 5.70889 5.25063C5.78022 5.12639 5.82278 4.98773 5.83343 4.84486C5.84408 4.70199 5.82255 4.55855 5.77043 4.42511C5.7183 4.29166 5.63692 4.1716 5.53225 4.07377Z" fill="#FF9214"/>
<path d="M12.9773 14.6025C13.1757 14.7951 13.442 14.9019 13.7185 14.8998C13.995 14.8978 14.2597 14.787 14.4552 14.5914C14.6508 14.3959 14.7615 14.1313 14.7636 13.8547C14.7657 13.5782 14.6589 13.312 14.4663 13.1135L12.9773 11.6245C12.7788 11.4319 12.5126 11.3251 12.236 11.3272C11.9595 11.3292 11.6949 11.44 11.4993 11.6356C11.3038 11.8311 11.193 12.0957 11.1909 12.3723C11.1889 12.6488 11.2957 12.9151 11.4883 13.1135L12.9773 14.6025Z" fill="#FF9214"/>
<path d="M0.00219326 8.54077C-0.00723785 8.68294 0.0138196 8.82548 0.0639549 8.95885C0.11409 9.09221 0.192146 9.21333 0.292893 9.31407C0.393641 9.41482 0.514754 9.49288 0.648121 9.54301C0.781487 9.59315 0.924027 9.6142 1.06619 9.60477H3.19319C3.46961 9.5963 3.73186 9.48054 3.92438 9.28202C4.11691 9.0835 4.22458 8.81782 4.22458 8.54127C4.22458 8.26473 4.11691 7.99905 3.92438 7.80053C3.73186 7.60201 3.46961 7.48625 3.19319 7.47777H1.06619C0.924117 7.46836 0.781668 7.48939 0.648376 7.53947C0.515084 7.58955 0.394023 7.66751 0.293292 7.76815C0.192561 7.86878 0.114483 7.98977 0.064281 8.12302C0.0140792 8.25626 -0.00708885 8.39869 0.00219326 8.54077Z" fill="#FF9214"/>
<path d="M17.0143 8.5408C17.0237 8.39864 17.0027 8.2561 16.9525 8.12273C16.9024 7.98936 16.8243 7.86825 16.7236 7.7675C16.6229 7.66675 16.5017 7.5887 16.3684 7.53856C16.235 7.48843 16.0925 7.46737 15.9503 7.4768H13.8283C13.6859 7.47244 13.5441 7.49671 13.4112 7.54819C13.2784 7.59967 13.1572 7.67731 13.0549 7.7765C12.9527 7.87568 12.8714 7.9944 12.8158 8.12561C12.7603 8.25681 12.7317 8.39783 12.7317 8.5403C12.7317 8.68277 12.7603 8.8238 12.8158 8.955C12.8714 9.08621 12.9527 9.20492 13.0549 9.30411C13.1572 9.40329 13.2784 9.48093 13.4112 9.53241C13.5441 9.58389 13.6859 9.60817 13.8283 9.6038H15.9553C16.097 9.61247 16.2389 9.59089 16.3716 9.54048C16.5042 9.49007 16.6247 9.412 16.7249 9.31144C16.825 9.21089 16.9026 9.09016 16.9526 8.95729C17.0025 8.82442 17.0235 8.68244 17.0143 8.5408Z" fill="#FF9214"/>
<path d="M4.04421 14.6025L5.53321 13.1135C5.72581 12.9151 5.8326 12.6488 5.83053 12.3723C5.82846 12.0957 5.71769 11.8311 5.52215 11.6356C5.3266 11.44 5.06198 11.3292 4.78545 11.3272C4.50891 11.3251 4.24266 11.4319 4.04421 11.6245L2.55521 13.1135C2.45437 13.2095 2.37408 13.325 2.31923 13.453C2.26437 13.581 2.23608 13.7188 2.23608 13.858C2.23608 13.9972 2.26437 14.135 2.31923 14.263C2.37408 14.391 2.45437 14.5065 2.55521 14.6025C2.77211 14.7585 3.03253 14.8424 3.29971 14.8424C3.56689 14.8424 3.82731 14.7585 4.04421 14.6025Z" fill="#FF9214"/>
<path d="M12.9771 2.47871L11.4881 3.96771C11.3879 4.06494 11.3081 4.18112 11.2532 4.30949C11.1983 4.43787 11.1695 4.57587 11.1685 4.71548C11.1674 4.85508 11.1942 4.9935 11.2471 5.12268C11.3001 5.25186 11.3782 5.36922 11.4769 5.46794C11.5756 5.56666 11.693 5.64476 11.8221 5.69771C11.9513 5.75065 12.0897 5.77737 12.2293 5.77633C12.3689 5.77528 12.5069 5.74649 12.6353 5.69162C12.7637 5.63675 12.8799 5.5569 12.9771 5.45671L14.4661 3.96771C14.5669 3.8717 14.6472 3.7562 14.7021 3.62822C14.7569 3.50024 14.7852 3.36245 14.7852 3.22321C14.7852 3.08397 14.7569 2.94618 14.7021 2.8182C14.6472 2.69023 14.5669 2.57473 14.4661 2.47871C14.2492 2.3227 13.9888 2.23877 13.7216 2.23877C13.4544 2.23877 13.194 2.3227 12.9771 2.47871Z" fill="#FF9214"/>
</svg>
