<svg width="18" height="19" viewBox="0 0 18 19" fill="none" xmlns="http://www.w3.org/2000/svg">
<path opacity="0.30518" d="M17.5227 16.7867L13.1364 12.2247C14.2642 10.884 14.8821 9.19716 14.8821 7.44107C14.8821 3.33813 11.544 0 7.44107 0C3.33813 0 0 3.33813 0 7.44107C0 11.544 3.33813 14.8821 7.44107 14.8821C8.98137 14.8821 10.4492 14.4176 11.7042 13.5356L16.1238 18.1323C16.3086 18.3241 16.557 18.4299 16.8233 18.4299C17.0753 18.4299 17.3144 18.3338 17.4959 18.1591C17.8815 17.788 17.8938 17.1727 17.5227 16.7867ZM7.44107 1.94115C10.4738 1.94115 12.941 4.40835 12.941 7.44107C12.941 10.4738 10.4738 12.941 7.44107 12.941C4.40835 12.941 1.94115 10.4738 1.94115 7.44107C1.94115 4.40835 4.40835 1.94115 7.44107 1.94115Z" fill="white"/>
</svg>
