<svg width="149" height="162" viewBox="0 0 149 162" fill="none" xmlns="http://www.w3.org/2000/svg">
<g clip-path="url(#clip0_91_361)">
<path d="M95.6237 3.14972C96.9547 3.84896 96.9547 3.84896 98.3127 4.56232C99.2696 5.04395 100.227 5.52557 101.213 6.02179C103.32 7.0835 105.422 8.15391 107.521 9.23175C111.323 11.1638 115.152 13.0326 118.988 14.8944C121.03 15.8915 123.071 16.8903 125.112 17.8902C126.445 18.5421 127.779 19.1914 129.114 19.8382C131.001 20.7545 132.88 21.684 134.758 22.617C135.842 23.1492 136.926 23.6814 138.044 24.2298C142.777 27.0636 146.878 30.8611 149 35.9998C150.456 42.9463 148.734 48.2248 145.485 54.3553C145.127 55.0483 144.77 55.7414 144.402 56.4554C143.651 57.9124 142.895 59.3673 142.136 60.8202C140.69 63.5952 139.273 66.3849 137.856 69.1749C136.455 71.9297 135.042 74.6785 133.628 77.4271C132.918 78.8082 132.21 80.19 131.503 81.5726C129.035 86.3993 126.533 91.207 124 95.9998C123.619 96.7254 123.238 97.451 122.845 98.1985C121.691 100.38 120.519 102.55 119.34 104.719C118.994 105.376 118.648 106.033 118.292 106.711C115.383 111.98 111.924 115.213 106.75 118.375C102.448 119.352 98.3303 118.622 94.0002 118C93.9177 119.031 93.8352 120.062 93.7502 121.125C92.6511 126.803 90.5369 129.839 85.9377 133.312C77.142 138.365 67.6946 135.378 58.3048 133.48C56.9855 133.218 55.6661 132.956 54.3466 132.695C51.5939 132.147 48.8423 131.595 46.0915 131.038C42.579 130.327 39.0638 129.631 35.5475 128.94C32.8267 128.403 30.1075 127.858 27.3888 127.311C25.4677 126.925 23.5452 126.547 21.6227 126.169C20.4477 125.929 19.2727 125.689 18.0622 125.442C16.5195 125.132 16.5195 125.132 14.9457 124.816C8.37674 122.996 4.9523 120.307 1.00016 115C-3.39576 106.208 1.0996 92.5098 2.95719 83.2264C3.26472 81.6476 3.5714 80.0687 3.87728 78.4897C4.51614 75.2055 5.16323 71.9231 5.81681 68.6419C6.65098 64.4519 7.46717 60.2587 8.27765 56.0641C8.9073 52.8131 9.54488 49.5638 10.185 46.3149C10.4888 44.7692 10.7906 43.2232 11.0902 41.6767C11.5105 39.5154 11.9411 37.3563 12.3744 35.1976C12.6165 33.9733 12.8585 32.7489 13.1079 31.4875C14.6021 25.6469 16.6679 20.332 21.0002 15.9998C29.5546 11.2291 37.5839 13.0954 46.6877 14.9998C48.524 15.3791 50.3612 15.7543 52.1994 16.1248C53.0021 16.2924 53.8047 16.46 54.6317 16.6326C57.1721 17.0265 59.4361 17.2324 62.0002 16.9998C63.9744 14.4853 63.9744 14.4853 65.5002 11.2498C72.0236 -1.48936 83.3639 -2.90688 95.6237 3.14972ZM75.0002 12.9998C72.7072 16.7689 72.7072 16.7689 72.0002 20.9998C72.7261 21.1303 73.452 21.2609 74.1999 21.3953C77.5111 21.9991 80.818 22.6242 84.1252 23.2498C85.2673 23.4548 86.4094 23.6597 87.5861 23.8709C93.6272 25.03 98.2312 26.0391 103 29.9998C103.578 30.4536 104.155 30.9073 104.75 31.3748C109.159 37.1059 107.855 43.306 107 49.9998C106.261 54.5104 105.388 58.9898 104.496 63.4725C104.254 64.7173 104.011 65.9622 103.761 67.2448C103.122 70.5178 102.478 73.7899 101.832 77.0616C100.918 81.6988 100.01 86.3374 99.1039 90.9762C98.6222 93.4396 98.1381 95.9024 97.6516 98.3648C97.4346 99.4703 97.2176 100.576 96.9941 101.715C96.8017 102.69 96.6093 103.665 96.411 104.669C95.9423 106.934 95.9423 106.934 96.0002 109C100.037 109.349 100.037 109.349 104 109C106.993 106.372 108.866 103.78 110.664 100.246C111.38 98.8552 111.38 98.8552 112.11 97.4363C112.61 96.4467 113.11 95.457 113.625 94.4373C114.698 92.3473 115.771 90.2574 116.844 88.1678C117.376 87.1254 117.909 86.083 118.457 85.0091C120.25 81.5126 122.072 78.0324 123.907 74.5577C124.716 73.0241 125.523 71.4888 126.326 69.9517C128.455 65.8829 130.634 61.8496 132.879 57.8436C133.349 56.9912 133.818 56.1388 134.302 55.2606C135.2 53.633 136.113 52.0132 137.042 50.4031C139.056 46.7197 139.99 44.4744 140.082 40.2029C138.113 34.374 132.889 32.2581 127.617 29.6444C126.705 29.1893 126.705 29.1893 125.775 28.7251C123.811 27.7477 121.844 26.7795 119.875 25.8123C118.52 25.1425 117.166 24.4725 115.811 23.8023C112.484 22.1589 109.152 20.5245 105.82 18.8926C104.15 18.0735 102.484 17.2488 100.817 16.4236C98.1957 15.1258 95.5685 13.841 92.9377 12.5623C92.1905 12.1915 91.4433 11.8206 90.6735 11.4385C84.0256 8.25639 80.388 7.61194 75.0002 12.9998ZM25.849 25.1642C23.8931 28.164 23.1705 30.3242 22.4921 33.8214C22.2618 34.9706 22.0316 36.1198 21.7943 37.3039C21.5619 38.5403 21.3295 39.7767 21.09 41.0506C20.8364 42.3373 20.5828 43.6241 20.3216 44.9498C19.6474 48.3722 18.9907 51.7978 18.3376 55.2242C17.6805 58.6548 17.0066 62.082 16.3341 65.5096C15.3127 70.7246 14.3066 75.9422 13.3122 81.1624C12.5438 85.1942 11.7582 89.2204 10.9264 93.2396C10.7026 94.3456 10.7026 94.3456 10.4742 95.474C10.1067 97.2825 9.72901 99.0889 9.35001 100.895C8.81286 105.662 8.72785 109.388 11.7863 113.263C16.743 115.942 21.9167 116.762 27.422 117.797C29.2439 118.154 29.2439 118.154 31.1025 118.519C34.3259 119.148 37.5514 119.764 40.7784 120.374C44.0376 120.995 47.2918 121.643 50.547 122.285C53.0468 122.769 55.5467 123.253 58.047 123.734C59.2098 123.962 60.3726 124.19 61.5707 124.425C72.1961 126.872 72.1961 126.872 82.4115 124.662C84.8961 120.499 85.5531 116.138 86.4181 111.406C86.6246 110.347 86.8311 109.289 87.0439 108.198C87.4828 105.946 87.9156 103.693 88.3429 101.438C89.1953 96.979 90.1008 92.5313 91.0063 88.0826C91.9011 83.6708 92.7761 79.2552 93.6498 74.8392C94.0975 72.5837 94.5485 70.3288 95.0024 68.0745C95.6717 64.7489 96.3311 61.4215 96.9884 58.0936C97.293 56.5951 97.293 56.5951 97.6038 55.0663C99.8546 45.361 99.8546 45.361 97.2902 36.1807C92.3197 32.8858 87.1712 32.1519 81.3595 31.1053C80.1228 30.8682 78.886 30.6311 77.6118 30.3869C74.9972 29.8896 72.3826 29.3999 69.7643 28.9229C66.4311 28.3154 63.103 27.6839 59.7759 27.0434C56.5764 26.4293 53.3742 25.8299 50.172 25.2303C48.395 24.8929 48.395 24.8929 46.5821 24.5487C35.5564 21.8073 35.5564 21.8073 25.849 25.1642Z" fill="#FEFEFE"/>
<path d="M56 56C56.99 56 57.98 56 59 56C59.1586 56.8804 59.3171 57.7609 59.4805 58.668C61.0432 66.4471 62.2485 70.6513 68.8789 75.3242C70.5962 76.535 72.2992 77.7661 74 79C74 79.66 74 80.32 74 81C72.515 81.2417 72.515 81.2417 71 81.4883C63.5121 82.948 58.7805 84.133 54.25 90.75C53.6777 91.7348 53.1053 92.7197 52.5156 93.7344C51.7654 94.8559 51.7654 94.8559 51 96C50.01 96 49.02 96 48 96C47.8414 95.1196 47.6829 94.2391 47.5195 93.332C45.9568 85.5529 44.7515 81.3487 38.1211 76.6758C36.4038 75.465 34.7008 74.2339 33 73C33 72.34 33 71.68 33 71C33.8804 70.8414 34.7609 70.6829 35.668 70.5195C43.4021 68.9658 47.7085 67.7976 52.2891 61.1211C53.4874 59.3867 54.7405 57.6904 56 56Z" fill="#FEFEFE"/>
</g>
<defs>
<clipPath id="clip0_91_361">
<rect width="149" height="162" fill="white"/>
</clipPath>
</defs>
</svg>
