<svg width="31" height="31" viewBox="0 0 31 31" fill="none" xmlns="http://www.w3.org/2000/svg">
<path fill-rule="evenodd" clip-rule="evenodd" d="M15.2433 30.4867C6.82469 30.4867 0 23.662 0 15.2433C0 6.82469 6.82469 0 15.2433 0C19.1041 0 22.6297 1.43531 25.3155 3.80148C24.6826 4.10228 24.1937 4.65714 23.9808 5.3343C22.9637 4.43683 21.8074 3.69346 20.5484 3.14079C20.9041 3.62451 21.2315 4.14903 21.5285 4.70338C22.2142 5.98331 22.7713 7.47543 23.171 9.1147L21.7454 10.6394L20.2287 9.65411H21.2105C20.847 8.14497 20.343 6.79456 19.7369 5.6631C18.4284 3.22061 16.7923 2.03244 15.2433 2.03244C13.6944 2.03244 12.0582 3.22061 10.7498 5.66315C10.1437 6.79456 9.63968 8.14497 9.27617 9.65411H16.0921L14.1298 11.6866H8.88803C8.72548 12.8155 8.63789 14.0077 8.63789 15.2433C8.63789 16.479 8.72548 17.6712 8.88803 18.8001H21.5986C21.7076 18.0431 21.7829 17.2576 21.8207 16.4497C22.5542 16.5442 23.3118 16.316 23.8759 15.7914C23.8557 16.8216 23.7789 17.8281 23.6503 18.8001H27.9699C28.2855 17.6685 28.4542 16.4756 28.4542 15.2433C28.4542 14.0111 28.2855 12.8182 27.9699 11.6866H27.7225L27.9674 11.4246C28.3884 11.7339 28.9081 11.9166 29.4704 11.9166C29.6894 11.9166 29.9019 11.8889 30.1046 11.8369C30.3546 12.9321 30.4867 14.0723 30.4867 15.2433C30.4867 23.662 23.662 30.4867 15.2433 30.4867ZM2.51676 18.8001C2.20116 17.6685 2.03244 16.4756 2.03244 15.2433C2.03244 14.0111 2.20116 12.8182 2.51676 11.6866H6.83638C6.68501 12.8302 6.60544 14.0217 6.60544 15.2433C6.60544 16.465 6.68501 17.6564 6.83638 18.8001H2.51676ZM3.26956 20.8326H7.19099C7.5958 22.6845 8.19802 24.3643 8.9582 25.7833C9.25519 26.3376 9.58252 26.8622 9.93825 27.3459C7.00248 26.0572 4.62508 23.7316 3.26956 20.8326ZM15.2433 28.4542C13.6944 28.4542 12.0582 27.266 10.7498 24.8235C10.1437 23.6921 9.63968 22.3417 9.27618 20.8326H21.2105C20.847 22.3417 20.343 23.6921 19.7369 24.8235C18.4284 27.266 16.7923 28.4542 15.2433 28.4542ZM23.2957 20.8326C22.8909 22.6845 22.2886 24.3643 21.5285 25.7833C21.2315 26.3376 20.9041 26.8622 20.5484 27.3459C23.4842 26.0572 25.8616 23.7316 27.2171 20.8326H23.2957ZM9.93824 3.14079C9.58252 3.62451 9.25519 4.14903 8.9582 4.70338C8.19802 6.12238 7.5958 7.8022 7.19099 9.65411H3.26956C4.62508 6.75508 7.00248 4.42951 9.93824 3.14079Z" fill="#575B60"/>
<path d="M14.9582 15.9491C14.5684 16.3529 13.9251 16.3642 13.5213 15.9743C13.1175 15.5845 13.1063 14.9411 13.4961 14.5374L17.3282 10.5684C17.6662 10.2184 18.2048 10.157 18.6129 10.4221L21.9863 12.6136L27.1291 7.1135H26.4048C25.8435 7.1135 25.3886 6.65854 25.3886 6.09728C25.3886 5.53602 25.8435 5.08105 26.4048 5.08105H29.4705C30.0317 5.08105 30.4867 5.53602 30.4867 6.09728V9.37601C30.4867 9.93727 30.0317 10.3922 29.4705 10.3922C28.9092 10.3922 28.4543 9.93727 28.4543 9.37601V8.67208L22.8892 14.6239C22.5527 14.9838 22.0064 15.0504 21.5932 14.782L18.2083 12.583L14.9582 15.9491Z" fill="#575B60"/>
</svg>
